<mxfile host="app.diagrams.net" modified="2021-08-04T13:50:10.247Z" agent="5.0 (Windows NT 10.0; Win64; x64) AppleWebKit/537.36 (KHTML, like Gecko) Chrome/92.0.4515.131 Safari/537.36" etag="5uhk21T9hwfptanae_Az" version="14.9.3" type="github">
  <diagram id="C5RBs43oDa-KdzZeNtuy" name="Page-1">
    <mxGraphModel dx="981" dy="548" grid="1" gridSize="10" guides="1" tooltips="1" connect="1" arrows="1" fold="1" page="1" pageScale="1" pageWidth="827" pageHeight="1169" math="0" shadow="0">
      <root>
        <mxCell id="WIyWlLk6GJQsqaUBKTNV-0" />
        <mxCell id="WIyWlLk6GJQsqaUBKTNV-1" parent="WIyWlLk6GJQsqaUBKTNV-0" />
        <mxCell id="NT-q2lJVwO3E3Lz_5r6I-69" value="" style="rounded=1;whiteSpace=wrap;html=1;labelBackgroundColor=#ffffff;fontSize=17;align=center;" vertex="1" parent="WIyWlLk6GJQsqaUBKTNV-1">
          <mxGeometry x="590" y="210" width="270" height="150" as="geometry" />
        </mxCell>
        <mxCell id="NT-q2lJVwO3E3Lz_5r6I-6" style="edgeStyle=orthogonalEdgeStyle;rounded=0;orthogonalLoop=1;jettySize=auto;html=1;exitX=0.5;exitY=1;exitDx=0;exitDy=0;" edge="1" parent="WIyWlLk6GJQsqaUBKTNV-1">
          <mxGeometry relative="1" as="geometry">
            <mxPoint x="590" y="320" as="sourcePoint" />
            <mxPoint x="590" y="320" as="targetPoint" />
          </mxGeometry>
        </mxCell>
        <mxCell id="NT-q2lJVwO3E3Lz_5r6I-9" value="&lt;pre class=&quot;sampledata&quot; id=&quot;sample-input-1&quot; style=&quot;box-sizing: border-box; border-radius: 5px; overflow: scroll auto; font-family: menlo, monaco, &amp;quot;source code pro&amp;quot;, consolas, monospace; font-size: 18px; display: block; padding: 8px; margin: 0px 0px 10px; line-height: 1.42857; color: rgb(51, 51, 51); word-break: normal; overflow-wrap: normal; background-color: rgb(247, 247, 249); border: 1px solid rgb(225, 225, 232); font-style: normal; font-weight: 400; letter-spacing: normal; text-indent: 0px; text-transform: none; word-spacing: 0px;&quot;&gt;4 5 1&#xa;1 2&#xa;1 3&#xa;1 4&#xa;2 4&#xa;3 4&lt;/pre&gt;" style="text;whiteSpace=wrap;html=1;" vertex="1" parent="WIyWlLk6GJQsqaUBKTNV-1">
          <mxGeometry x="120" y="270" width="90" height="210" as="geometry" />
        </mxCell>
        <mxCell id="NT-q2lJVwO3E3Lz_5r6I-11" value="&lt;font style=&quot;font-size: 24px&quot;&gt;V&lt;/font&gt;" style="text;html=1;resizable=0;autosize=1;align=center;verticalAlign=middle;points=[];fillColor=none;strokeColor=none;rounded=0;" vertex="1" parent="WIyWlLk6GJQsqaUBKTNV-1">
          <mxGeometry x="280" y="290" width="30" height="20" as="geometry" />
        </mxCell>
        <mxCell id="NT-q2lJVwO3E3Lz_5r6I-12" value="" style="endArrow=classic;html=1;" edge="1" parent="WIyWlLk6GJQsqaUBKTNV-1">
          <mxGeometry width="50" height="50" relative="1" as="geometry">
            <mxPoint x="90" y="250" as="sourcePoint" />
            <mxPoint x="130" y="280" as="targetPoint" />
            <Array as="points">
              <mxPoint x="130" y="250" />
            </Array>
          </mxGeometry>
        </mxCell>
        <mxCell id="NT-q2lJVwO3E3Lz_5r6I-13" value="" style="endArrow=classic;html=1;" edge="1" parent="WIyWlLk6GJQsqaUBKTNV-1">
          <mxGeometry width="50" height="50" relative="1" as="geometry">
            <mxPoint x="190" y="250" as="sourcePoint" />
            <mxPoint x="160" y="280" as="targetPoint" />
            <Array as="points">
              <mxPoint x="180" y="250" />
              <mxPoint x="160" y="250" />
            </Array>
          </mxGeometry>
        </mxCell>
        <mxCell id="NT-q2lJVwO3E3Lz_5r6I-15" value="종료 정점" style="text;html=1;resizable=0;autosize=1;align=center;verticalAlign=middle;points=[];fillColor=none;strokeColor=none;rounded=0;" vertex="1" parent="WIyWlLk6GJQsqaUBKTNV-1">
          <mxGeometry x="190" y="240" width="70" height="20" as="geometry" />
        </mxCell>
        <mxCell id="NT-q2lJVwO3E3Lz_5r6I-16" value="시작 정점" style="text;html=1;resizable=0;autosize=1;align=center;verticalAlign=middle;points=[];fillColor=none;strokeColor=none;rounded=0;" vertex="1" parent="WIyWlLk6GJQsqaUBKTNV-1">
          <mxGeometry x="25" y="240" width="70" height="20" as="geometry" />
        </mxCell>
        <mxCell id="NT-q2lJVwO3E3Lz_5r6I-17" value="" style="endArrow=classic;html=1;" edge="1" parent="WIyWlLk6GJQsqaUBKTNV-1">
          <mxGeometry width="50" height="50" relative="1" as="geometry">
            <mxPoint x="280" y="297" as="sourcePoint" />
            <mxPoint x="190" y="297" as="targetPoint" />
            <Array as="points">
              <mxPoint x="200" y="297" />
            </Array>
          </mxGeometry>
        </mxCell>
        <mxCell id="NT-q2lJVwO3E3Lz_5r6I-18" value="" style="shape=flexArrow;endArrow=classic;html=1;" edge="1" parent="WIyWlLk6GJQsqaUBKTNV-1">
          <mxGeometry width="50" height="50" relative="1" as="geometry">
            <mxPoint x="210" y="410" as="sourcePoint" />
            <mxPoint x="290" y="410" as="targetPoint" />
          </mxGeometry>
        </mxCell>
        <mxCell id="NT-q2lJVwO3E3Lz_5r6I-20" value="&lt;font style=&quot;font-size: 25px;&quot;&gt;5&lt;/font&gt;" style="ellipse;whiteSpace=wrap;html=1;aspect=fixed;labelBackgroundColor=#ffffff;fontSize=25;" vertex="1" parent="WIyWlLk6GJQsqaUBKTNV-1">
          <mxGeometry x="440" y="370" width="80" height="80" as="geometry" />
        </mxCell>
        <mxCell id="NT-q2lJVwO3E3Lz_5r6I-21" value="4" style="ellipse;whiteSpace=wrap;html=1;aspect=fixed;fontSize=25;" vertex="1" parent="WIyWlLk6GJQsqaUBKTNV-1">
          <mxGeometry x="320" y="370" width="80" height="80" as="geometry" />
        </mxCell>
        <mxCell id="NT-q2lJVwO3E3Lz_5r6I-22" value="" style="endArrow=classic;startArrow=classic;html=1;fontSize=23;exitX=1;exitY=0.5;exitDx=0;exitDy=0;" edge="1" parent="WIyWlLk6GJQsqaUBKTNV-1" source="NT-q2lJVwO3E3Lz_5r6I-21">
          <mxGeometry width="50" height="50" relative="1" as="geometry">
            <mxPoint x="400" y="420" as="sourcePoint" />
            <mxPoint x="440" y="410" as="targetPoint" />
          </mxGeometry>
        </mxCell>
        <mxCell id="NT-q2lJVwO3E3Lz_5r6I-23" value="1" style="ellipse;whiteSpace=wrap;html=1;aspect=fixed;labelBackgroundColor=#ffffff;fontSize=25;" vertex="1" parent="WIyWlLk6GJQsqaUBKTNV-1">
          <mxGeometry x="280" y="480" width="80" height="80" as="geometry" />
        </mxCell>
        <mxCell id="NT-q2lJVwO3E3Lz_5r6I-24" value="3" style="ellipse;whiteSpace=wrap;html=1;aspect=fixed;labelBackgroundColor=#ffffff;fontSize=25;" vertex="1" parent="WIyWlLk6GJQsqaUBKTNV-1">
          <mxGeometry x="480" y="480" width="80" height="80" as="geometry" />
        </mxCell>
        <mxCell id="NT-q2lJVwO3E3Lz_5r6I-25" value="2" style="ellipse;whiteSpace=wrap;html=1;aspect=fixed;labelBackgroundColor=#ffffff;fontSize=25;" vertex="1" parent="WIyWlLk6GJQsqaUBKTNV-1">
          <mxGeometry x="380" y="560" width="80" height="80" as="geometry" />
        </mxCell>
        <mxCell id="NT-q2lJVwO3E3Lz_5r6I-26" value="" style="endArrow=classic;startArrow=classic;html=1;fontSize=25;exitX=0.5;exitY=0;exitDx=0;exitDy=0;entryX=0;entryY=1;entryDx=0;entryDy=0;" edge="1" parent="WIyWlLk6GJQsqaUBKTNV-1" source="NT-q2lJVwO3E3Lz_5r6I-23" target="NT-q2lJVwO3E3Lz_5r6I-21">
          <mxGeometry width="50" height="50" relative="1" as="geometry">
            <mxPoint x="300" y="480" as="sourcePoint" />
            <mxPoint x="340" y="450" as="targetPoint" />
            <Array as="points" />
          </mxGeometry>
        </mxCell>
        <mxCell id="NT-q2lJVwO3E3Lz_5r6I-27" value="" style="endArrow=classic;startArrow=classic;html=1;fontSize=25;entryX=0;entryY=0.5;entryDx=0;entryDy=0;exitX=1;exitY=0.5;exitDx=0;exitDy=0;" edge="1" parent="WIyWlLk6GJQsqaUBKTNV-1" source="NT-q2lJVwO3E3Lz_5r6I-23" target="NT-q2lJVwO3E3Lz_5r6I-24">
          <mxGeometry width="50" height="50" relative="1" as="geometry">
            <mxPoint x="364" y="520" as="sourcePoint" />
            <mxPoint x="470" y="520" as="targetPoint" />
          </mxGeometry>
        </mxCell>
        <mxCell id="NT-q2lJVwO3E3Lz_5r6I-28" value="" style="endArrow=classic;startArrow=classic;html=1;fontSize=25;entryX=0;entryY=0.5;entryDx=0;entryDy=0;exitX=1;exitY=1;exitDx=0;exitDy=0;" edge="1" parent="WIyWlLk6GJQsqaUBKTNV-1" source="NT-q2lJVwO3E3Lz_5r6I-23" target="NT-q2lJVwO3E3Lz_5r6I-25">
          <mxGeometry width="50" height="50" relative="1" as="geometry">
            <mxPoint x="335" y="585" as="sourcePoint" />
            <mxPoint x="385" y="535" as="targetPoint" />
          </mxGeometry>
        </mxCell>
        <mxCell id="NT-q2lJVwO3E3Lz_5r6I-29" value="" style="endArrow=classic;startArrow=classic;html=1;fontSize=25;exitX=0.5;exitY=0;exitDx=0;exitDy=0;" edge="1" parent="WIyWlLk6GJQsqaUBKTNV-1" source="NT-q2lJVwO3E3Lz_5r6I-25" target="NT-q2lJVwO3E3Lz_5r6I-21">
          <mxGeometry width="50" height="50" relative="1" as="geometry">
            <mxPoint x="380" y="510" as="sourcePoint" />
            <mxPoint x="430" y="460" as="targetPoint" />
          </mxGeometry>
        </mxCell>
        <mxCell id="NT-q2lJVwO3E3Lz_5r6I-30" value="" style="endArrow=classic;startArrow=classic;html=1;fontSize=25;entryX=1;entryY=1;entryDx=0;entryDy=0;exitX=0;exitY=0;exitDx=0;exitDy=0;" edge="1" parent="WIyWlLk6GJQsqaUBKTNV-1" source="NT-q2lJVwO3E3Lz_5r6I-24" target="NT-q2lJVwO3E3Lz_5r6I-21">
          <mxGeometry width="50" height="50" relative="1" as="geometry">
            <mxPoint x="400" y="500" as="sourcePoint" />
            <mxPoint x="450" y="450" as="targetPoint" />
          </mxGeometry>
        </mxCell>
        <mxCell id="NT-q2lJVwO3E3Lz_5r6I-33" value="&lt;pre class=&quot;sampledata&quot; id=&quot;sample-input-2&quot; style=&quot;box-sizing: border-box; border-radius: 5px; overflow: scroll auto; font-family: menlo, monaco, &amp;quot;source code pro&amp;quot;, consolas, monospace; font-size: 18px; display: block; padding: 8px; margin: 0px 0px 10px; line-height: 1.42857; color: rgb(51, 51, 51); word-break: normal; overflow-wrap: normal; background-color: rgb(247, 247, 249); border: 1px solid rgb(225, 225, 232); font-style: normal; font-weight: 400; letter-spacing: normal; text-indent: 0px; text-transform: none; word-spacing: 0px;&quot;&gt;5 5 3&#xa;5 4&#xa;5 2&#xa;1 2&#xa;3 4&#xa;3 1&lt;/pre&gt;" style="text;whiteSpace=wrap;html=1;fontSize=17;" vertex="1" parent="WIyWlLk6GJQsqaUBKTNV-1">
          <mxGeometry x="120" y="680" width="90" height="210" as="geometry" />
        </mxCell>
        <mxCell id="NT-q2lJVwO3E3Lz_5r6I-34" value="" style="endArrow=none;dashed=1;html=1;fontSize=17;fontStyle=0;strokeWidth=4;" edge="1" parent="WIyWlLk6GJQsqaUBKTNV-1">
          <mxGeometry width="50" height="50" relative="1" as="geometry">
            <mxPoint x="20" y="670" as="sourcePoint" />
            <mxPoint x="820" y="670" as="targetPoint" />
          </mxGeometry>
        </mxCell>
        <mxCell id="NT-q2lJVwO3E3Lz_5r6I-35" value="5" style="ellipse;whiteSpace=wrap;html=1;aspect=fixed;labelBackgroundColor=#ffffff;fontSize=17;align=center;" vertex="1" parent="WIyWlLk6GJQsqaUBKTNV-1">
          <mxGeometry x="280" y="760" width="80" height="80" as="geometry" />
        </mxCell>
        <mxCell id="NT-q2lJVwO3E3Lz_5r6I-39" value="" style="curved=1;endArrow=classic;html=1;fontSize=17;strokeWidth=1;entryX=0.5;entryY=0;entryDx=0;entryDy=0;" edge="1" parent="WIyWlLk6GJQsqaUBKTNV-1" target="NT-q2lJVwO3E3Lz_5r6I-35">
          <mxGeometry width="50" height="50" relative="1" as="geometry">
            <mxPoint x="320" y="760" as="sourcePoint" />
            <mxPoint x="370" y="710" as="targetPoint" />
            <Array as="points">
              <mxPoint x="350" y="750" />
              <mxPoint x="340" y="720" />
              <mxPoint x="320" y="710" />
              <mxPoint x="290" y="740" />
            </Array>
          </mxGeometry>
        </mxCell>
        <mxCell id="NT-q2lJVwO3E3Lz_5r6I-40" value="4" style="ellipse;whiteSpace=wrap;html=1;aspect=fixed;labelBackgroundColor=#ffffff;fontSize=17;align=center;" vertex="1" parent="WIyWlLk6GJQsqaUBKTNV-1">
          <mxGeometry x="400" y="760" width="80" height="80" as="geometry" />
        </mxCell>
        <mxCell id="NT-q2lJVwO3E3Lz_5r6I-41" value="1" style="ellipse;whiteSpace=wrap;html=1;aspect=fixed;labelBackgroundColor=#ffffff;fontSize=17;align=center;" vertex="1" parent="WIyWlLk6GJQsqaUBKTNV-1">
          <mxGeometry x="240" y="870" width="80" height="80" as="geometry" />
        </mxCell>
        <mxCell id="NT-q2lJVwO3E3Lz_5r6I-42" value="3" style="ellipse;whiteSpace=wrap;html=1;aspect=fixed;labelBackgroundColor=#ffffff;fontSize=17;align=center;" vertex="1" parent="WIyWlLk6GJQsqaUBKTNV-1">
          <mxGeometry x="440" y="870" width="80" height="80" as="geometry" />
        </mxCell>
        <mxCell id="NT-q2lJVwO3E3Lz_5r6I-43" value="2" style="ellipse;whiteSpace=wrap;html=1;aspect=fixed;labelBackgroundColor=#ffffff;fontSize=17;align=center;" vertex="1" parent="WIyWlLk6GJQsqaUBKTNV-1">
          <mxGeometry x="340" y="970" width="80" height="80" as="geometry" />
        </mxCell>
        <mxCell id="NT-q2lJVwO3E3Lz_5r6I-44" value="" style="endArrow=classic;startArrow=classic;html=1;fontSize=17;strokeWidth=1;entryX=0;entryY=0.5;entryDx=0;entryDy=0;" edge="1" parent="WIyWlLk6GJQsqaUBKTNV-1" target="NT-q2lJVwO3E3Lz_5r6I-40">
          <mxGeometry width="50" height="50" relative="1" as="geometry">
            <mxPoint x="360" y="800" as="sourcePoint" />
            <mxPoint x="410" y="750" as="targetPoint" />
          </mxGeometry>
        </mxCell>
        <mxCell id="NT-q2lJVwO3E3Lz_5r6I-45" value="" style="endArrow=classic;startArrow=classic;html=1;fontSize=17;strokeWidth=1;exitX=0.5;exitY=0;exitDx=0;exitDy=0;entryX=0.725;entryY=0.988;entryDx=0;entryDy=0;entryPerimeter=0;" edge="1" parent="WIyWlLk6GJQsqaUBKTNV-1" source="NT-q2lJVwO3E3Lz_5r6I-43" target="NT-q2lJVwO3E3Lz_5r6I-35">
          <mxGeometry width="50" height="50" relative="1" as="geometry">
            <mxPoint x="300" y="880" as="sourcePoint" />
            <mxPoint x="350" y="830" as="targetPoint" />
          </mxGeometry>
        </mxCell>
        <mxCell id="NT-q2lJVwO3E3Lz_5r6I-46" value="" style="endArrow=classic;startArrow=classic;html=1;fontSize=17;strokeWidth=1;entryX=1;entryY=1;entryDx=0;entryDy=0;exitX=0;exitY=0;exitDx=0;exitDy=0;" edge="1" parent="WIyWlLk6GJQsqaUBKTNV-1" source="NT-q2lJVwO3E3Lz_5r6I-43" target="NT-q2lJVwO3E3Lz_5r6I-41">
          <mxGeometry width="50" height="50" relative="1" as="geometry">
            <mxPoint x="280" y="1020" as="sourcePoint" />
            <mxPoint x="330" y="970" as="targetPoint" />
          </mxGeometry>
        </mxCell>
        <mxCell id="NT-q2lJVwO3E3Lz_5r6I-47" value="" style="endArrow=classic;startArrow=classic;html=1;fontSize=17;strokeWidth=1;entryX=0.688;entryY=0.963;entryDx=0;entryDy=0;entryPerimeter=0;" edge="1" parent="WIyWlLk6GJQsqaUBKTNV-1" target="NT-q2lJVwO3E3Lz_5r6I-40">
          <mxGeometry width="50" height="50" relative="1" as="geometry">
            <mxPoint x="480" y="880" as="sourcePoint" />
            <mxPoint x="530" y="830" as="targetPoint" />
          </mxGeometry>
        </mxCell>
        <mxCell id="NT-q2lJVwO3E3Lz_5r6I-52" value="" style="endArrow=classic;startArrow=classic;html=1;fontSize=17;strokeWidth=1;entryX=0;entryY=0.5;entryDx=0;entryDy=0;exitX=1;exitY=0.5;exitDx=0;exitDy=0;" edge="1" parent="WIyWlLk6GJQsqaUBKTNV-1" source="NT-q2lJVwO3E3Lz_5r6I-41" target="NT-q2lJVwO3E3Lz_5r6I-42">
          <mxGeometry width="50" height="50" relative="1" as="geometry">
            <mxPoint x="320" y="920" as="sourcePoint" />
            <mxPoint x="370" y="870" as="targetPoint" />
          </mxGeometry>
        </mxCell>
        <mxCell id="NT-q2lJVwO3E3Lz_5r6I-54" value="1000" style="ellipse;whiteSpace=wrap;html=1;aspect=fixed;labelBackgroundColor=#ffffff;fontSize=17;align=center;" vertex="1" parent="WIyWlLk6GJQsqaUBKTNV-1">
          <mxGeometry x="240" y="1160" width="80" height="80" as="geometry" />
        </mxCell>
        <mxCell id="NT-q2lJVwO3E3Lz_5r6I-55" value="999" style="ellipse;whiteSpace=wrap;html=1;aspect=fixed;labelBackgroundColor=#ffffff;fontSize=17;align=center;" vertex="1" parent="WIyWlLk6GJQsqaUBKTNV-1">
          <mxGeometry x="360" y="1160" width="80" height="80" as="geometry" />
        </mxCell>
        <mxCell id="NT-q2lJVwO3E3Lz_5r6I-56" value="1" style="ellipse;whiteSpace=wrap;html=1;aspect=fixed;labelBackgroundColor=#ffffff;fontSize=17;align=center;" vertex="1" parent="WIyWlLk6GJQsqaUBKTNV-1">
          <mxGeometry x="300" y="1260" width="80" height="80" as="geometry" />
        </mxCell>
        <mxCell id="NT-q2lJVwO3E3Lz_5r6I-57" value="" style="endArrow=classic;startArrow=classic;html=1;fontSize=17;strokeWidth=1;entryX=0;entryY=0.5;entryDx=0;entryDy=0;" edge="1" parent="WIyWlLk6GJQsqaUBKTNV-1" target="NT-q2lJVwO3E3Lz_5r6I-55">
          <mxGeometry width="50" height="50" relative="1" as="geometry">
            <mxPoint x="320" y="1200" as="sourcePoint" />
            <mxPoint x="370" y="1150" as="targetPoint" />
          </mxGeometry>
        </mxCell>
        <mxCell id="NT-q2lJVwO3E3Lz_5r6I-58" value="" style="endArrow=classic;startArrow=classic;html=1;fontSize=17;strokeWidth=1;entryX=0;entryY=0;entryDx=0;entryDy=0;exitX=0.663;exitY=0.975;exitDx=0;exitDy=0;exitPerimeter=0;" edge="1" parent="WIyWlLk6GJQsqaUBKTNV-1" source="NT-q2lJVwO3E3Lz_5r6I-54" target="NT-q2lJVwO3E3Lz_5r6I-56">
          <mxGeometry width="50" height="50" relative="1" as="geometry">
            <mxPoint x="290" y="1240" as="sourcePoint" />
            <mxPoint x="340" y="1190" as="targetPoint" />
          </mxGeometry>
        </mxCell>
        <mxCell id="NT-q2lJVwO3E3Lz_5r6I-59" value="1. 시작점 v&amp;nbsp;" style="text;html=1;align=center;verticalAlign=middle;resizable=0;points=[];autosize=1;strokeColor=none;fontSize=17;" vertex="1" parent="WIyWlLk6GJQsqaUBKTNV-1">
          <mxGeometry x="680" y="215" width="100" height="30" as="geometry" />
        </mxCell>
        <mxCell id="NT-q2lJVwO3E3Lz_5r6I-60" value="2.지나간 자리 표시" style="text;html=1;align=center;verticalAlign=middle;resizable=0;points=[];autosize=1;strokeColor=none;fontSize=17;" vertex="1" parent="WIyWlLk6GJQsqaUBKTNV-1">
          <mxGeometry x="650" y="240" width="160" height="30" as="geometry" />
        </mxCell>
        <mxCell id="NT-q2lJVwO3E3Lz_5r6I-61" value="3.다음것을 찾을때 낮은것 부터" style="text;html=1;align=center;verticalAlign=middle;resizable=0;points=[];autosize=1;strokeColor=none;fontSize=17;" vertex="1" parent="WIyWlLk6GJQsqaUBKTNV-1">
          <mxGeometry x="605" y="265" width="250" height="30" as="geometry" />
        </mxCell>
        <mxCell id="NT-q2lJVwO3E3Lz_5r6I-62" value="BFS와 DFS방식으로 각각" style="text;html=1;align=center;verticalAlign=middle;resizable=0;points=[];autosize=1;strokeColor=none;fontSize=17;" vertex="1" parent="WIyWlLk6GJQsqaUBKTNV-1">
          <mxGeometry x="625" y="380" width="210" height="30" as="geometry" />
        </mxCell>
        <mxCell id="NT-q2lJVwO3E3Lz_5r6I-63" value="4. 지나간자리는 다시 못감" style="text;html=1;align=center;verticalAlign=middle;resizable=0;points=[];autosize=1;strokeColor=none;fontSize=17;" vertex="1" parent="WIyWlLk6GJQsqaUBKTNV-1">
          <mxGeometry x="625" y="290" width="210" height="30" as="geometry" />
        </mxCell>
        <mxCell id="NT-q2lJVwO3E3Lz_5r6I-65" value="5. 갈곳이 없을경우 종료" style="text;html=1;align=center;verticalAlign=middle;resizable=0;points=[];autosize=1;strokeColor=none;fontSize=17;" vertex="1" parent="WIyWlLk6GJQsqaUBKTNV-1">
          <mxGeometry x="630" y="315" width="200" height="30" as="geometry" />
        </mxCell>
        <mxCell id="NT-q2lJVwO3E3Lz_5r6I-67" value="" style="shape=flexArrow;endArrow=classic;html=1;fontSize=17;strokeWidth=1;" edge="1" parent="WIyWlLk6GJQsqaUBKTNV-1">
          <mxGeometry width="50" height="50" relative="1" as="geometry">
            <mxPoint x="880" y="284.5" as="sourcePoint" />
            <mxPoint x="950" y="284.5" as="targetPoint" />
            <Array as="points" />
          </mxGeometry>
        </mxCell>
        <mxCell id="NT-q2lJVwO3E3Lz_5r6I-70" value="1. 정점 리스트&lt;br&gt;2. 간선의 정보를 저장할 리스트&lt;br&gt;3. 정점 리스트와 연동된 추가 변수 true/false&lt;br&gt;4. 서칭방식을 전통 for문처럼?&lt;br&gt;5. 2.의 값이 true일때 못가게 만들기&lt;br&gt;6. 실행하지 못할경우 break&lt;br&gt;" style="rounded=1;whiteSpace=wrap;html=1;labelBackgroundColor=#ffffff;fontSize=17;align=center;" vertex="1" parent="WIyWlLk6GJQsqaUBKTNV-1">
          <mxGeometry x="960" y="150" width="220" height="270" as="geometry" />
        </mxCell>
        <mxCell id="NT-q2lJVwO3E3Lz_5r6I-71" value="&lt;pre class=&quot;sampledata&quot; id=&quot;sample-input-3&quot; style=&quot;box-sizing: border-box; border-radius: 5px; overflow: scroll auto; font-family: menlo, monaco, &amp;quot;source code pro&amp;quot;, consolas, monospace; font-size: 18px; display: block; padding: 8px; margin: 0px 0px 10px; line-height: 1.42857; color: rgb(51, 51, 51); word-break: normal; overflow-wrap: normal; background-color: rgb(247, 247, 249); border: 1px solid rgb(225, 225, 232); font-style: normal; font-weight: 400; letter-spacing: normal; text-indent: 0px; text-transform: none; word-spacing: 0px;&quot;&gt;1000 1 1000&#xa;999 1000&lt;/pre&gt;" style="text;whiteSpace=wrap;html=1;fontSize=17;" vertex="1" parent="WIyWlLk6GJQsqaUBKTNV-1">
          <mxGeometry x="80" y="1090" width="150" height="110" as="geometry" />
        </mxCell>
        <mxCell id="NT-q2lJVwO3E3Lz_5r6I-72" value="" style="endArrow=none;dashed=1;html=1;fontSize=17;fontStyle=0;strokeWidth=4;" edge="1" parent="WIyWlLk6GJQsqaUBKTNV-1">
          <mxGeometry width="50" height="50" relative="1" as="geometry">
            <mxPoint x="10.000000000000114" y="1070" as="sourcePoint" />
            <mxPoint x="810" y="1070" as="targetPoint" />
          </mxGeometry>
        </mxCell>
        <mxCell id="NT-q2lJVwO3E3Lz_5r6I-73" value="&lt;pre class=&quot;sampledata&quot; id=&quot;sample-output-1&quot; style=&quot;box-sizing: border-box; border-radius: 5px; overflow: scroll auto; font-family: menlo, monaco, &amp;quot;source code pro&amp;quot;, consolas, monospace; font-size: 18px; display: block; padding: 8px; margin: 0px 0px 10px; line-height: 1.42857; color: rgb(51, 51, 51); word-break: normal; overflow-wrap: normal; background-color: rgb(247, 247, 249); border: 1px solid rgb(225, 225, 232); font-style: normal; font-weight: 400; letter-spacing: normal; text-indent: 0px; text-transform: none; word-spacing: 0px;&quot;&gt;1 2 4 3&#xa;1 2 3 4&lt;/pre&gt;" style="text;whiteSpace=wrap;html=1;fontSize=17;" vertex="1" parent="WIyWlLk6GJQsqaUBKTNV-1">
          <mxGeometry x="120" y="500" width="110" height="110" as="geometry" />
        </mxCell>
        <mxCell id="NT-q2lJVwO3E3Lz_5r6I-74" value="&lt;pre class=&quot;sampledata&quot; id=&quot;sample-output-2&quot; style=&quot;box-sizing: border-box; border-radius: 5px; overflow: scroll auto; font-family: menlo, monaco, &amp;quot;source code pro&amp;quot;, consolas, monospace; font-size: 18px; display: block; padding: 8px; margin: 0px 0px 10px; line-height: 1.42857; color: rgb(51, 51, 51); word-break: normal; overflow-wrap: normal; background-color: rgb(247, 247, 249); border: 1px solid rgb(225, 225, 232); font-style: normal; font-weight: 400; letter-spacing: normal; text-indent: 0px; text-transform: none; word-spacing: 0px;&quot;&gt;3 1 2 5 4&#xa;3 1 4 2 5&lt;/pre&gt;" style="text;whiteSpace=wrap;html=1;fontSize=17;" vertex="1" parent="WIyWlLk6GJQsqaUBKTNV-1">
          <mxGeometry x="110" y="930" width="130" height="110" as="geometry" />
        </mxCell>
        <mxCell id="NT-q2lJVwO3E3Lz_5r6I-75" value="&lt;pre class=&quot;sampledata&quot; id=&quot;sample-output-3&quot; style=&quot;box-sizing: border-box; border-radius: 5px; overflow: scroll auto; font-family: menlo, monaco, &amp;quot;source code pro&amp;quot;, consolas, monospace; font-size: 18px; display: block; padding: 8px; margin: 0px 0px 10px; line-height: 1.42857; color: rgb(51, 51, 51); word-break: normal; overflow-wrap: normal; background-color: rgb(247, 247, 249); border: 1px solid rgb(225, 225, 232); font-style: normal; font-weight: 400; letter-spacing: normal; text-indent: 0px; text-transform: none; word-spacing: 0px;&quot;&gt;1000 999&#xa;1000 999&lt;/pre&gt;" style="text;whiteSpace=wrap;html=1;fontSize=17;" vertex="1" parent="WIyWlLk6GJQsqaUBKTNV-1">
          <mxGeometry x="80" y="1220" width="120" height="110" as="geometry" />
        </mxCell>
      </root>
    </mxGraphModel>
  </diagram>
</mxfile>
